<svg xmlns="http://www.w3.org/2000/svg" xmlns:xlink="http://www.w3.org/1999/xlink" data-name="Calque 2" preserveAspectRatio="xMidYMid meet" version="1.0" viewBox="0.0 0.0 62.4 80.6" zoomAndPan="magnify" style="fill: rgb(243, 219, 185);" original_string_length="2779" width="470.29527272727296px" height="614.4000000000003px"><g data-name="Calque 1"><g id="__id5_so8jgj2kvn"><path d="M0,73.7c1.43-.29,2.45-2.08,3.97-1.59,3.96,1.28,4.22-1.6,4.88-4.09,1-3.8,1.94-7.62,2.93-11.42.49-1.88.31-3.35-1.4-4.73-2.96-2.4-3.7-5.67-2.64-9.32,1.77-6.13,3.58-12.26,5.33-18.4.6-2.09,1.98-2.89,4.04-2.74,3.63.27,7,1.5,10.29,2.97,1.76.78,2.36,2.32,1.81,4.09-2,6.4-3.11,13.08-5.82,19.26-1.45,3.3-3.44,6.04-7.53,6.02-1.69,0-2.17,1.02-2.52,2.41-1.2,4.76-2.49,9.5-3.67,14.26-.35,1.43-.47,2.6,1.4,3.58,4.2,2.21,4.13,2.5,1.74,6.62h-5.91c-2.03-2.02-5.3-2.3-6.89-4.94v-1.98ZM25.73,34.79c-4.06,1.42-7.65,1.95-11.3,2.37-4.2.48-6.79,5.74-5.47,10.13.76,2.51,2.32,4.34,5,4.84,2.77.52,5.21-.13,6.83-2.65,2.75-4.3,3.96-9.09,4.95-14.68ZM27.71,29.47c-4.51-.71-7.9-1.82-11.19-3.28-1.05-.47-2.4-.87-2.77.78-.67,2.92-2.39,5.66-1.87,9,5.78-.95,12.06.25,15.83-6.5ZM9.52,78.9c1.23-.09,2.67.23,2.95-1.19.26-1.3-.87-2.2-2.01-2.28-1.92-.13-3.61-.56-5.24-1.66-.81-.54-1.97-.18-2.49.81-.56,1.08.11,1.84,1,2.37,1.83,1.09,3.81,1.73,5.78,1.94ZM27.3,27.17c-3.17-3.52-7.78-4.78-11.6-3.18,3.72,1.85,7.12,3.97,11.6,3.18Z" style="fill: inherit;"/><path d="M53.41,44.81c-.1,2.7-.54,5.27-2.91,6.99-1.39,1.01-1.74,2.22-1.18,3.85,1.58,4.65,3.14,9.32,4.61,14.01.55,1.76,1.44,2.41,3.25,1.86,1.87-.57,3.79-.52,4.49,1.65.76,2.33-.89,3.72-2.72,4.64-2.2,1.11-4.57,1.79-7.08,1.72-1.37-.04-2.73-.27-3.19-1.77-.46-1.5-.38-3.26,1.28-3.81,3.76-1.23,2.83-3.54,1.87-6.13-.96-2.61-1.7-5.31-2.56-7.96-1.09-3.37-1.64-6.83-6.57-7.15-3.12-.2-4.74-3.4-5.64-6.27-1.86-5.94-3.44-11.97-5.13-17.97-.63-2.24.1-3.92,2.24-4.81,3.18-1.33,6.46-2.34,9.92-2.59,1.76-.13,3.33.36,3.81,2.33,1.6,6.52,4.44,12.71,5.24,19.45.08.65.16,1.3.25,1.96ZM35.14,34.37c1.72,5.05,2.02,9.37,3.95,13.21,1.79,3.56,4.83,5.16,7.9,4.31,3.25-.9,5.3-3.85,5.17-7.45-.18-5.34-1.36-7.24-5.58-7.68-3.54-.37-7.07-.65-11.44-2.39ZM49.66,35.35c-.26-3.58-1.52-6.67-2.85-9.87-3.76,1.08-7.24,2.53-11.02,2.76-2.37.14-1.88,1.76-1.4,3.2.34,1.04,1.45,1.21,2.28,1.69,3.97,2.3,8.34,2.2,13,2.22ZM53.17,78.01c2.07-.22,4.06-.81,5.85-1.99.69-.45,1.36-1.04,1.04-1.95-.38-1.06-1.37-1.36-2.38-1.18-1.71.3-2.96,1.83-4.97,1.63-1.26-.13-2.7.72-2.42,2.33.26,1.44,1.76,1.01,2.87,1.16ZM33.2,26.21c6.84.7,9.9-.34,11.97-3.84-4.08.4-7.75,1.11-11.97,3.84Z" style="fill: inherit;"/><path d="M36.67,13.76c0-3,1.04-5.35,3.97-6.51-1.34,2.16-2.55,4.4-3.97,6.51Z" style="fill: inherit;"/><path d="M20.85,11.92c-1.69-1.78-2.53-4.12-4.06-6.02,3.26.75,3.68,3.37,4.06,6.02Z" style="fill: inherit;"/><path d="M28.78,7.89c-.68-2.64-.84-5.27.1-7.89.51,2.64.63,5.27-.1,7.89Z" style="fill: inherit;"/></g></g></svg>