<svg xmlns="http://www.w3.org/2000/svg" xmlns:xlink="http://www.w3.org/1999/xlink" preserveAspectRatio="xMidYMid meet" version="1.0" viewBox="-0.0 -0.0 276.0 409.6" zoomAndPan="magnify" style="fill: rgb(66, 5, 8);" original_string_length="5457" width="89.18519165152833px" height="132.57258218470423px"><g id="__id8_so8jgj2kvn"><path d="m156.48,181.27c.54-.2,1.09-.41,1.46-.47l1.08-.26c2.74-.68,5.57-1.39,8.34-2.75,6.67-2.85,12.3-7.85,16.28-14.46,3.75-6.23,5.81-13.69,5.81-20.99,0-2.79-.29-5.55-.86-8.13l-.03-.14c-.4-1.62-.87-3.31-1.45-5.15-.1-1.69-.26-3.2-.48-4.6-.63-4.58-1.31-9.06-2.66-13.48-1.59-5.19-3.86-9.33-6.95-12.67-4.43-4.75-9.51-8.8-14.71-11.72-6.26-3.51-12.46-5.3-18.43-5.3h-.3s-.31,0-.31,0c-3.96,0-7.95.88-12.2,2.69-4.02,1.71-7.67,4-10.33,5.77-.98.59-2.06,1.12-3.2,1.68-2,.98-4.06,1.99-6.01,3.51-5.63,3.95-11.08,10.78-15.35,19.26-4.28,8.52-6.65,17.24-6.65,24.55,0,1.42.09,2.79.28,4.1,1.38,9.32,5.92,18.69,13.51,27.84l.07.08c3.68,4.13,8.6,7.25,14.63,9.26,4.81,1.61,10.4,2.54,16.64,2.77h.06s.04,0,.04,0c4.42-.05,9.61-.67,14.73-1.73.1.08.2.16.31.24l.27.17c.87.49,1.9.71,2.88.74,1.35,0,2.5-.42,3.28-.71l.28-.1Zm21.48-40.28c-1.68,7.15-5.04,13.25-9.48,17.2-4.06,3.13-8.74,6.07-14.3,8.98-.75.33-1.5.66-2.23.96-.81.32-1.56.81-2.24,1.45-2.95,1.12-5.84,2.13-8.74,2.41-.53.03-1.04.08-1.58.05-4.96,0-10-1.54-14.57-4.44-4.42-2.81-8.17-6.82-10.57-11.33-1.09-1.98-2.26-3.92-3.39-5.79-2.81-4.65-5.46-9.05-6.84-13.79-.18-.75-.27-1.49-.27-2.28,0-1.77.46-3.73,1.42-6,.8-1.9,1.85-3.82,2.88-5.68l.36-.67c4.05-7.05,9.01-12.83,14.75-17.18,1.16-.55,2.31-1.11,3.46-1.68,5-2.47,9.73-4.8,14.74-5.32.64-.06,1.31-.08,1.93-.09,5.86,0,12.43,2.53,18.47,7.11,4.56,3.56,8.12,8.87,10.84,16.15.58,1.71,1.22,3.4,1.84,5.04,1.54,4.06,2.99,7.89,3.45,11.75.05.67.08,1.35.08,2.03,0,.37,0,.74-.02,1.12Zm94.82-16.05l-.07-.17c-.38-.92-.75-1.84-1.13-2.76-.7-1.68-1.41-3.41-2.06-5.11-.46-3.06-.87-6.19-1.27-9.22-.9-6.82-1.83-13.88-3.34-20.76l-.03-.12c-3.03-11.84-10.23-21.86-16.71-30.29-6.26-8.44-14.23-15.16-21.94-21.66l-1.98-1.67c-13.94-12.25-28.35-24.92-46.86-30.27l-.11-.03c-6.3-1.61-13.25-2.56-20.66-2.82-.89-.04-1.78-.06-2.67-.06-8.63,0-17.01,1.78-25.11,3.49-1.01.21-2.01.43-2.99.63-8.62,1.66-17.39,4.25-26.08,7.72-7.46,2.32-14.59,6.46-21.83,12.7l-.05.04c-12.44,10.42-26.65,22.76-37.87,37.45-7.76,10.79-14.22,22.52-20.48,33.87-.83,1.5-1.65,3-2.49,4.5-3.88,7.09-8.28,15.12-11.58,23.47-3.69,9.35-5.48,17.86-5.48,26.04,0,1.24.04,2.49.12,3.63.21,10.36,2.16,20.83,5.82,31.1,2.23,6.37,4.54,13.23,6.31,20.29,1.53,6.65,3.63,13.41,6.42,20.56l1.86,4.66c3.97,9.89,8.07,20.11,11.28,30.39l.04.13c3.57,10.29,9.8,19.02,15.82,27.46,1.17,1.64,2.34,3.28,3.47,4.9l.99,1.46c2.58,3.81,5.25,7.74,8.27,11.44l.03.04c4.85,5.98,10.48,11.2,15.92,16.24,2.33,2.16,4.75,4.4,7.02,6.62,1.59,1.6,3.16,3.23,4.73,4.86,2.69,2.79,5.48,5.67,8.37,8.42h0s1.62,1.54,1.62,1.54c4,3.8,7.78,7.39,10.52,11.71.6.97,1.19,1.94,1.78,2.92,2.52,4.16,5.13,8.46,8.48,12.33v.02c2.34,2.73,4.84,5.28,7.25,7.75,2.23,2.28,4.33,4.43,6.32,6.7,3.04,3.54,5.61,7.42,8.33,11.53,1.35,2.03,2.74,4.12,4.18,6.16l.22.31.85.72c.31.26.62.55.93.84.53.94,1.27,1.78,2.24,2.52l.32.2c.1.05.19.1.29.15.29.32.58.64.85.96l.79.94,1.23.12c.22.02.45.03.67.03.45,0,.9-.05,1.34-.14l.95-.2,1.04-2.06c.88-.55,1.71-1.29,2.51-2.25.86-1.04,1.65-2.3,2.42-3.86,1.87-3.25,3.83-7.02,5.73-10.66l.06-.12c3.46-6.65,7.1-13.84,11.46-22.67l.05-.12c.48-1.02,1.02-2.12,1.66-3.35l.75-1.15c2.07-3.37,4.17-6.71,6.27-10.06,1.37-2.19,2.75-4.38,4.11-6.58.97-1.39,1.95-2.77,2.93-4.16,1.71-2.43,3.48-4.93,5.21-7.46,10.82-16.16,20.33-34.46,28.25-54.4,1.87-4.74,3.53-9.61,5.12-14.31l.99-2.91c7.08-12.72,13.03-25.71,17.7-38.66,2.22-6.42,4.81-12.88,7.31-19.12,2.19-5.46,4.46-11.12,6.47-16.73l.04-.12c2.52-7.57,4.38-14.44,5.68-21.01,3.08-8.13,4.65-16.21,4.65-24.01,0-6.48-1.1-12.71-3.26-18.53Zm-121.26,260.98c-.8-1.07-1.61-2.15-2.41-3.23-1.4-1.88-2.81-3.77-4.23-5.64l-.1-.13c-1.81-2.27-3.68-4.49-5.49-6.64-3.96-4.71-7.71-9.17-10.93-14.09l-.08-.12c-1.11-1.61-2.14-3.27-3.23-5.02-1.87-3.01-3.81-6.13-6.19-9.02-3.12-3.78-6.7-7.02-10.16-10.15-3.33-3.02-6.48-5.87-9.18-9.11-6.12-7.59-11.6-15.53-17.92-25.06-1.41-2.28-2.82-4.65-4.17-6.95-5.04-8.52-10.26-17.34-17.61-24.6-.82-.87-1.65-1.73-2.48-2.58-2.48-2.56-4.83-4.99-6.81-7.62-2.9-4.11-5.12-8.64-7.48-13.44-1.22-2.49-2.49-5.07-3.85-7.58-4.28-8.02-8.29-15.91-10.23-24.2-.84-3.98-1.33-7.98-1.85-12.21-.5-4.1-1.02-8.33-1.88-12.53l-.04-.21c-.26-1.21-.53-2.41-.79-3.61-1.1-4.95-2.14-9.63-2.51-14.37-.2-3.97-.3-7.92-.3-11.75,0-8.71.52-17.17,1.54-25.14,2.05-9.45,4.99-19.05,8.75-28.53,5.25-11.31,12.09-21.75,22.2-33.86,4.49-5.53,9.8-11.86,15.98-16.97,2.54-2.1,5.21-4.18,7.79-6.19,2.34-1.83,4.76-3.72,7.19-5.7,13.24-11.44,26.05-18.88,39.19-22.74,4.18-.97,8.77-1.46,13.62-1.46h.01c4.87,0,10.12.48,16.03,1.45,4.96.89,11.43,2.21,17.55,4.59,7.94,3.1,15.26,7.54,22.08,11.82l.15.1c16.1,10.19,28.78,21.74,37.75,34.4,1.27,1.7,2.47,3.31,3.62,4.84,5.14,6.85,9.2,12.26,12.41,17.81,4.13,7.13,6.79,14.29,9.16,24.68.29,3.14.74,6.26,1.17,9.28.29,1.98.58,4.03.82,6.02.18,2.81.27,5.66.27,8.45,0,6.95-.56,13.92-1.66,20.7-1.47,6.88-3.29,13.65-5.58,21.69-1.46,4.04-3.17,8.11-4.82,12.05-2.34,5.58-4.75,11.35-6.62,17.31-.92,2.81-1.76,5.61-2.47,8-.64,1.38-1.28,2.75-1.93,4.13-3.67,7.84-7.47,15.95-10.56,24.28l-1.64,4.35c-5.88,15.62-11.43,30.37-19.17,44.97-2.67,4.46-5.35,8.9-8.04,13.35-5.1,8.44-10.37,17.16-15.44,25.82-4.12,7.07-7.58,14.18-11.33,22.06-5.92,7.06-10.48,14.96-14.66,22.47h0c-1.08,1.92-2.27,3.89-3.46,5.83Z" style="fill: inherit;"/></g></svg>