<svg xmlns="http://www.w3.org/2000/svg" xmlns:xlink="http://www.w3.org/1999/xlink" data-name="Layer 1" preserveAspectRatio="xMidYMid meet" version="1.0" viewBox="-0.0 -0.0 2135.1 2484.0" zoomAndPan="magnify" style="fill: rgb(66, 5, 8);" original_string_length="10601" width="106.62978520855647px" height="124.06013417239076px"><g id="__id6_so8jgj2kvn"><path d="M1507.77,1577.17c-13.18,4.79-24.68,14-41.92,15.82,22.94-16.64,39.85-34,34.05-62.94-12.66,17-21.18,37.44-45.59,42.14,25.84-13.22,24.28-42.34,37.73-62.78,1.64-2.49,3.11-6.13.37-9.07-3-3.25-6.26-.15-8.9.79a651,651,0,0,1-89.42,25.06c-31.86,6.38-53.6,24.7-72.25,49.56-28.42,37.88-53,78.18-76.32,119.24-94.34,165.82-214,312.24-344.87,450-103.5,108.94-214.06,210.6-323.06,313.88-8.63,8.18-15.75,17.95-25.47,25.12C688,2322,836.79,2171.62,970,2006.92c-5.87,4.62-11.67,9.33-17.62,13.83-66.19,50.05-137.41,92.66-206.1,139-58.75,39.64-117.73,79-172.49,124.14-62.66,51.7-118.56,109.17-157.13,181.79,15.45-45.18,40.24-85,69.52-122.36,29.87-38.08,64.12-71.91,100.71-103.44,36.15-31.17,74.48-59.49,113.63-86.95-12,1.76-22.46,7.59-33.1,12.6-75,35.29-146.35,76.14-204.38,136.61-36.29,37.81-66.56,79.57-79,131.8a93.12,93.12,0,0,0-2.12,15.08c-.36,5-.08,10.14-.08,15.5-7.87-10.59-10.56-28.56-7-48.32,9.1-50,35.65-90.87,67.87-128.62,43.88-51.42,97.54-90.5,156.23-125.19-18.3,2.18-36.58,4.66-54.92,6.51-55.3,5.56-110.72,10.11-165.92,16.46-101.78,11.71-202.8,27.25-297.62,69-28.7,12.64-56,27.67-80.51,52.73,5.57-18.15,15.62-29.33,27-39.41,32.88-29.18,72.43-46,113.25-60.27,69.36-24.31,141.43-36.33,213.78-47.19,78.26-11.74,157.46-16.24,235.4-30.44,137.6-25.06,259.43-82.6,363.09-177.18,90.73-82.78,163.19-180.59,231.19-282,.7-1,1.06-2.31.08-4.59l-23.3,30.85c-7.81,10.35-15.52,20.78-23.46,31-61.3,79.29-124.42,157-202.75,220.55-110,89.29-232.44,153.3-373.35,177.27-59.12,10.05-118.73,14.17-177.88-1.66-18.51-4.95-36-12-50.77-24.58-12.77-10.84-21.39-23.86-20.95-44.37,23.92,38.8,61.43,45.44,99.24,49.44,89.14,9.4,173.86-11.67,257.18-40.17,158-54.06,288.34-147.7,393.67-276.82,36.5-44.75,73.28-89.26,107.94-135.89q-32.14,26.77-64.28,53.55c-122.76,102.71-249.85,199.31-391.44,275.14-74.76,40-151.11,76.62-235.56,91.94-21.66,3.93-43.61,8.22-65.31-.92,58.64,1.13,108.52-24.23,157.23-52.15,127.68-73.19,238.69-167.28,339.95-273.42,44.52-46.68,85.72-96.14,124.49-147.66,3.45-4.59,6.69-9.35,11.4-15.94-280,257.59-597.62,394.77-981.6,335.65-.35-1.63-.69-3.26-1-4.89,10,.71,19.92,1.57,29.89,2.08,10.18.53,20.39.49,30.57,1.09,149.32,8.76,290.68-21.36,425.64-85.15,142.06-67.16,267.59-157.89,383.06-263.64,89.54-82,166.74-175.09,244.12-268.08,9.48-11.4,18.85-22.89,28.34-34.28,3.9-4.68,3.52-6.26-2.69-9.45-6.61-3.39-19.71-2-16.89-16.57.65-3.31-5.32-2-8.27-2.33-19-2-37.36-6.36-54.49-15.08-17.53-8.92-17.5-9-7-25.7-42.91.34-80.29-12.06-110.86-44.13,14.48-6.26,29.4-9,45.33-18.54-55.31-.66-100.77-15.61-134.38-60.91,32.55-1.54,63.69-5.14,96-20.82-78.62-7.45-137.37-40.82-176.83-109.63,39.24,16.61,76.94,19.24,119.42,3.24-78.69-24.6-138.45-67.72-173.25-143.11,34.82,18.47,69.68,30,110.67,19.17-82.24-33-137.8-87.93-159.67-177.36,32.61,29,66.75,46.63,110.09,42.4C740.16,639.77,680.58,565.18,681.47,449c28.11,43.3,68.88,66.67,118.75,77.32C719.85,473.62,692.2,394.9,688.47,302c17.1,19,34.38,35.36,54.22,48.76,19.54,13.21,40.72,23.11,66,33.38-42-51-67.75-106.12-83-166.29-4.66-18.38-9.25-36.79-13.19-55.33-7-33.15-17.1-65.11-32.42-95.53-10.59-21.05-17.18-43.73-21.79-67,3.88,2.1,4.05,6.08,5.25,9.51,16.94,48.26,43.61,90.79,76.3,129.81,74.42,88.82,160,166.16,248,241,85.09,72.33,171,143.64,256.62,215.39,1.7,1.42,3.57,2.66,7.51,5.59-.79-9.55-1.63-17-2-24.36-1.84-38.22,2.33-75.92,11.47-113,7-28.22,15.11-56.14,15-86.31,23.32,52.73,55.67,99.43,89.21,145.64-19.38-66.21-16.31-134-15.48-201.48.67-54.86-5.63-108-26.79-159-.82-2-.92-4.27.81-7.32,9.23,17.34,18.6,34.61,27.66,52,42.25,81.27,88.63,160.46,121.79,246.26,57.23,148,94.92,300.76,108.49,458.91,2.12,24.73,18.06,38.27,28.44,56.55,3.46,6.09,8.38,1.7,12.33.56,36.26-10.43,69.8-27,102.5-45.55,29.1-16.49,59-31.31,92.48-36.41,70.69-10.77,129.75,9.68,174.59,66.72,3.44,4.39,7.31,6.26,12.6,7.38,28.46,6,57.4,9.9,85.12,19.12,14.78,4.92,29.44,10.23,44.91,21.35-22.48.28-42-.66-61.51,2.41-43.4,6.82-79.21,27.29-109.36,58.46-31.27,32.32-56.39,69.4-73.21,110.69-36.2,88.82-99.83,153.67-175.17,209.16a761.27,761.27,0,0,1-148.7,86c-8.26,3.58-9.78,6.4-6.47,14.93,5.16,13.32,7.64,27.54,9,41.89-6.52,2.37-4.33-6.79-11.13-5.55,10.64,33.24-13,49.12-34.25,66.42,9-15.95,24.49-29.35,19.09-55-9.91,20.06-16.56,38.17-35.74,45.57,18.68-24.74,24.37-53.65,27.17-83.49.24-2.54,2.22-6.15-1.39-7.13-2.85-.77-6.4,0-9.36,1-3.64,1.18-2.35,4.46-1.73,7,5,20.82-6,40-6.28,60.38-.06,4.8-4.64,9.86-7.92,14.21C1505.92,1572.38,1504.88,1574.43,1507.77,1577.17ZM1278.33,588.63c.81,6.07,1.84,12.44,2.49,18.84,1.51,14.81,7.65,26,19.35,36.43,61.61,54.71,117.12,114.84,157.12,187.69,22,40.14,42.65,81.1,65.21,120.95,30.61,54,72.57,96.81,129,124.55a216.22,216.22,0,0,1,29.55,18.12c73.89,52.65,75.56,168.65,3,223.43-19.33,14.6-41.07,21.23-67.59,14,66.78-7.76,99.84-95.86,73.2-157.35,7.14,46.86-6.42,85-46,112.14,18.84-31.46,23-64,8.89-98.08,1.85,62.15-30.4,115.75-84.5,139-35.52,15.25-66.37,9.81-92.69-17.23-4.63-4.77-9.14-5.29-14.74-5-18.61,1-34.94-4.85-47.62-18.42-5.12-5.48-9.58-5.37-15.7-3.57-14.51,4.26-29.93,6.37-43.64.1-18.45-8.45-36.61-10.32-56.8-10.37-15,0-22.73,4.21-30.37,15.08-30.69,43.66-57,89.9-81.12,137.41-35.49,69.78-72.92,138.49-119.38,201.73-86.21,117.32-192.21,214-311.27,297-3.69,2.58-7.21,5.38-10.82,8.07,32.53-16.45,62.11-36.91,91.41-57.82,102.36-73.06,197.2-155.36,291.34-238.42,88.53-78.11,186.72-136.56,302.79-164.94,90-22,173.48-61.27,250.8-112.73,57.54-38.3,111-81.6,146-142.41,31.55-54.9,29.93-39.25-1.2-90.57-1.2-2-2.58-3.85-3.94-5.73-24.2-33.55-49.64-66-85.09-88.69-21.75-13.94-45.28-20.89-71.31-17-10.2,1.5-14,4.26-5.21,14.12,19.5,21.83,40.27,41.92,66.09,56.53-25.07-2-46.78-12-67.15-25.77-47.71-32.13-81.57-77.18-110.32-125.27C1472.53,808,1374.3,699.52,1278.33,588.63ZM1561.06,895.7c-19-210.53-93.89-403.05-186.93-589.8-3.13,124.46,14.74,244.33,74.45,355.51-54.46-69.07-106.21-139.63-155.87-213.31-6.47,16.58-8.7,32.18-12.34,47.44-8.36,35-2.71,66.62,20.8,94.76,10.67,12.76,19.38,27.17,30.11,39.87,50.83,60.17,107.67,115,157.55,176C1513,835.76,1536.92,865.52,1561.06,895.7ZM737.86,166.86c8.65,43.16,20.67,85.2,40.76,124.6,29.75,58.35,75.52,102.82,125.87,142.78,126.37,100.29,262.15,187.4,394.22,279.71,9.61,6.72,19.55,13,29.34,19.46l3.51-4c-4.41-3.17-9.42-5.76-13.15-9.59-80.05-82-167.14-156.38-253-232.06C950.7,386.63,835.34,286.19,737.86,166.86ZM712,510c4.38,25.32,14,46,27,65.23,27.76,41.07,67.84,66.31,112.15,85.55,89.79,39,184.27,63.16,278.92,86.63,20,5,40.19,9.21,60.3,13.79-116-66.49-231.2-133.07-344.37-203.16a27.53,27.53,0,0,0-8.77-3.9C794.09,545.6,752.2,533.56,712,510Zm493.59,207.51,1.85-2.63c-17.33-12.28-34.74-24.44-52-36.83C1055,605.84,955.41,532.39,866.59,445.82c-20.55-20-41.54-36.59-69.18-46S744,375.49,718.73,356.35c6.22,46.18,24.56,83.54,55.52,114.9,22.35,22.64,48.49,40.07,75.66,56.13,104,61.47,212.35,114.91,319.06,171.38C1181.09,705.18,1193.38,711.27,1205.59,717.52ZM774.2,694.3c1.21,2.44,2.29,5,3.65,7.31,29.41,50.93,75.66,80.08,129.55,98.5,92.18,31.53,186.76,33.75,282.29,20.78,6.38-.86,13.71.19,21-5-107.4-30.26-211.13-65.91-313.29-106.22a24.44,24.44,0,0,0-10.72-1.89C848.46,711.09,811.12,708.56,774.2,694.3Zm56.58,141.77c.37,2,.31,3,.72,3.69a44.28,44.28,0,0,0,3.86,5.77c26.28,31.4,59.4,53.1,97.95,65.74,107.87,35.36,211.75,22.62,312-28,.77-.39.89-2.08,1.56-3.81-12.26,0-23.81.37-35.33-.06C1122.39,876,1035,861,948.66,839c-3.49-.89-6.73-2.76-10.76-1.64C902.28,847.16,866.63,846.46,830.78,836.07Zm433.42,95.81c-79.68,24.25-160.67,31.71-243.19,23.92-6.85-.65-14.68-3.53-20.43-1.26-36.71,14.44-74.18,21.82-116,14.91,6.07,9.14,12.4,14.38,18.84,19.47a168.24,168.24,0,0,0,93.15,36.1C1099.07,1032.73,1187.43,998.46,1264.2,931.88ZM954.67,1082c25.07,19.52,50.93,26.55,78,26.54,101.64-.06,179.81-46,239.94-125.72,1.67-2.22,5.17-4.16,3.24-8.64l-6.06,3.27c-56.9,30.67-116.6,53.73-180.25,66-13.59,2.62-29.18,1.65-40.47,8.18C1020.52,1068.14,990,1076.77,954.67,1082Zm89.42,71.47c15.39,11.52,35.92,18.1,54.33,19.61,99.87,8.23,166-76.38,186.16-145.8a45.51,45.51,0,0,0-4.87,3.26c-43.41,38.83-93.54,66.28-148.38,84.66C1101.43,1125.19,1074.16,1140.32,1044.09,1153.44ZM1322.33,1054c-12.07,21.91-26,42.46-43.37,60.41-35.18,36.31-76.61,62.41-125.75,75.77-6,1.63-16,2.35-16,8.67,0,7.33,10.09,8.05,16.4,10,28.81,8.87,57,6,83.67-7.38C1297.64,1171.07,1316.78,1116.4,1322.33,1054Zm-312.41,509.72C841,1712.21,652.69,1826.21,436,1890.49,660.59,1840,850.24,1728,1009.92,1563.71Zm465.24-258.85c27.66,18.32,66.78,14,98.44-8.43,29.19-20.68,54.66-72.33,43.92-111.61-16.91,58.76-43,96.11-70,100.27,17.22-25.07,24.78-53.12,18.89-72C1551.41,1259,1521.54,1289.41,1475.16,1304.86Zm-50.28-30.56c23.64,11.94,52,7.61,78.18-11.49,29-21.09,42.81-50,43.93-85.29-12.84,32.41-24.68,45.66-58.21,63.45,3.26-7.76,6.35-14.8,9.19-21.94,2.75-6.94,4.3-14.12,3.26-22C1482.56,1229.16,1453,1250.23,1424.88,1274.3Zm-37.48-160.63c-9.38,62.07-49.76,102.21-98.31,137.91,52.45,6.94,116.2-43.9,115.15-90.8-7.23,10.93-12.43,22.52-24.45,31.92,3.79-15,8.6-27,9.5-40A158.07,158.07,0,0,0,1387.4,1113.67Zm-176,120c64.69,26.46,146.24-49.27,137-123.28-12.87,29.81-29.49,55.53-52.27,77.09C1273,1209.44,1246,1224.53,1211.45,1233.71Zm42.38-361.79c31.8,24.66,67.2,38.09,108,26.74,23.15-6.45,38.6-22.17,44.82-47.95C1358.43,887.18,1307.35,886.82,1253.83,871.92ZM1432.68,1168c-15.13,39.29-41.06,69.51-76.92,92.22,38.14,14,106.11-26.62,115.85-88.51-13.6,32.82-35.52,53.85-65.36,67.17C1423.45,1218.33,1431.69,1194.63,1432.68,1168Zm-130.79-227.1c25.56,20,64.88,22.94,92.72,6.93,20.39-11.72,34.11-33.26,31.76-49C1393.38,936.77,1351.87,950,1301.89,940.93Zm74.72-111.79c-44.87,10.27-86.36,1.8-125.07-22.59C1290.11,854.09,1349.48,864.46,1376.61,829.14Zm87.3,116.69c-25.05,38.69-59.68,57.39-103.44,63.62A77.46,77.46,0,0,0,1463.91,945.83Zm365.15-5.6c12.94,2.61,24.69,4.81,36.34,7.43,4.26,1,7.76,1.28,11.58-1.68,11.4-8.81,23.22-6.83,34.87-.34,5.25,2.93,10.31,6.2,17.54,10.57C1907.54,919.57,1873.88,914.78,1829.06,940.23Zm241.1,45.09c-23.31-4.51-43.07-8.41-62.87-12.1-3.35-.63-8.49-2.34-8.64,3.27-.21,8.14-4.7,15.28-5.58,23.52,13.12-3.29,25-6.81,37.09-9.14S2054.46,987.44,2070.16,985.32Zm-740.4-210.81a384.17,384.17,0,0,1-62-50.35C1281.42,749.54,1299.81,769.12,1329.76,774.51Zm573.82,182.21c-.24-5.71-3.79-7-8.43-6.88-5.09.18-7.65,3.38-7.32,8s3.57,7.63,8.41,7.09C1900.84,964.39,1903.53,961.41,1903.58,956.72Z" style="fill: inherit;"/></g><g id="__id7_so8jgj2kvn"><path d="M996.24,1736.25c87.14-86.33,171.71-175.54,269.35-250.69C1179.85,1573.41,1088.46,1655.22,996.24,1736.25Z" style="fill: inherit;"/></g></svg>